<svg version="1.1" id="Layer_1" xmlns="http://www.w3.org/2000/svg" xmlns:xlink="http://www.w3.org/1999/xlink" x="0px" y="0px"
	 width="100%" viewBox="0 0 1024 1024" enable-background="new 0 0 1024 1024" xml:space="preserve">
<path fill="#007bff" opacity="1.000000" stroke="none" 
	d="
M607.679932,534.504517 
	C611.830444,542.899902 613.754517,551.356384 613.373169,560.412598 
	C612.784973,574.380676 614.384033,588.417358 612.479309,602.338074 
	C610.635925,615.809998 604.835266,627.508301 594.891663,636.817627 
	C591.331238,640.150940 590.897217,642.905518 593.919434,646.489136 
	C594.450623,647.118958 594.794556,647.904480 595.243347,648.606323 
	C601.282471,658.050232 599.274536,659.074280 609.705383,651.248108 
	C643.542603,625.860657 663.991089,591.893188 670.582397,550.322693 
	C679.067017,496.810974 663.566895,450.611938 624.854370,412.528717 
	C621.384033,409.114868 621.573425,406.270630 622.426819,402.009064 
	C630.418884,362.097443 618.210571,329.008728 587.418335,302.884277 
	C574.982422,292.333527 561.606750,282.891785 548.689087,272.905975 
	C547.190491,271.747498 545.091064,271.069305 544.635437,268.194000 
	C549.754395,267.793976 554.549805,269.019257 559.267334,270.013641 
	C568.381409,271.934845 577.420898,274.221436 586.459229,276.484741 
	C590.640076,277.531677 594.994934,278.431854 597.036621,283.068176 
	C597.538513,284.207764 598.786865,284.406311 599.970825,284.683044 
	C618.365662,288.983551 634.584717,298.279907 651.038147,307.027161 
	C654.339478,308.782257 653.515686,311.894836 653.023560,314.585907 
	C650.806824,326.707825 647.968689,338.684875 644.205322,350.433868 
	C643.437256,352.831665 641.383606,355.497528 644.351990,357.692017 
	C648.256653,360.578644 650.643799,366.431641 657.241028,364.249969 
	C667.515747,360.852173 677.870117,357.694733 688.139954,354.282867 
	C701.382629,349.883331 702.799011,350.213898 711.344360,361.219330 
	C721.153320,373.852112 731.029846,386.435791 740.624023,399.230499 
	C745.872803,406.230347 745.427917,409.401733 739.200623,415.761993 
	C731.275085,423.856567 723.347229,431.953339 715.225891,439.849060 
	C712.760193,442.246307 711.851318,444.328674 713.230286,447.696503 
	C715.435120,453.081573 717.390320,458.595581 719.013184,464.182281 
	C720.010071,467.614105 722.126648,468.909637 725.314514,469.637573 
	C738.128784,472.563629 750.892151,475.713409 763.713013,478.609344 
	C768.297607,479.644867 769.996887,482.002716 770.498169,486.848175 
	C772.476562,505.972382 772.364258,525.068481 771.377319,544.225342 
	C771.102295,549.563599 769.339294,552.302490 763.839111,553.392456 
	C751.766907,555.784790 739.837097,558.887329 727.801880,561.480530 
	C724.134216,562.270813 722.090332,563.861755 721.184387,567.706848 
	C719.659973,574.176819 717.658569,580.548096 715.566711,586.864441 
	C714.645874,589.645020 715.122253,591.459778 717.286255,593.416565 
	C727.416626,602.576660 737.705261,611.557861 747.192017,621.428650 
	C751.189453,625.587891 751.891541,629.320129 749.014587,634.267395 
	C739.371948,650.849365 728.759705,666.778564 717.528198,682.318787 
	C714.215942,686.901611 710.021729,687.315308 705.164124,685.997437 
	C694.082642,682.991028 682.830139,680.559448 672.034973,676.582886 
	C668.233276,675.182495 665.001221,675.454285 661.788208,677.938416 
	C656.783447,681.807922 651.686646,685.559509 646.591797,689.310791 
	C644.328918,690.976929 644.389404,692.924683 645.015625,695.476013 
	C648.028992,707.753784 650.711609,720.112915 653.734009,732.388367 
	C654.803528,736.732239 653.910217,739.800537 649.879150,741.997009 
	C643.592651,745.422302 637.413940,749.045044 631.155640,752.522949 
	C628.317871,754.099854 626.729431,753.332336 626.728577,749.911255 
	C626.722473,726.746216 626.727844,703.581116 626.658264,680.416199 
	C626.649353,677.470459 628.645569,675.983215 630.431702,674.284668 
	C643.640991,661.722961 655.837097,648.362915 664.803955,632.299561 
	C676.312378,611.683167 683.790527,589.849854 685.287598,566.111206 
	C681.631042,578.249756 677.740662,590.329834 672.142334,601.708191 
	C658.246399,629.951050 640.141724,654.732300 612.851868,671.626038 
	C608.913452,674.064087 607.249573,676.926453 607.262573,681.747742 
	C607.421692,740.743164 607.279114,799.739563 607.481750,858.734741 
	C607.499573,863.920227 605.832092,865.972168 601.006653,867.199585 
	C576.392273,873.460449 551.472351,877.481506 526.065186,878.261597 
	C490.771271,879.345276 455.851074,876.889587 421.655365,867.348145 
	C413.864288,865.174194 413.863556,865.366882 413.881134,857.397949 
	C413.975250,814.734863 413.830780,772.069763 414.223572,729.409607 
	C414.372284,713.255432 414.392944,697.105286 414.434662,680.952637 
	C414.444031,677.323975 412.972290,675.164917 409.913422,673.383850 
	C380.860504,656.467041 359.660858,632.184814 343.498199,602.864441 
	C344.437469,606.010498 345.271606,609.192993 346.345367,612.292419 
	C347.433167,615.432434 348.689514,618.519653 349.997620,621.576233 
	C351.372681,624.789246 352.746735,628.017883 354.380188,631.102600 
	C363.317963,647.981567 375.408539,662.283264 390.306366,674.170898 
	C392.944519,676.276001 393.981781,678.490417 393.972168,681.776672 
	C393.909821,703.107666 394.006622,724.439087 393.999542,745.770325 
	C393.998840,747.860901 394.497162,750.153381 392.247345,752.193848 
	C383.605377,749.109924 375.573151,744.505493 367.877747,739.279785 
	C366.019745,738.018188 366.068146,736.017700 366.380524,733.865356 
	C368.224396,721.160278 371.017303,708.661377 374.773865,696.405518 
	C375.926971,692.643555 375.441772,690.205994 372.252167,687.818115 
	C367.455994,684.227539 362.937958,680.263245 358.333954,676.419250 
	C355.947571,674.426697 353.540619,674.062256 350.478882,675.102661 
	C339.133148,678.957764 327.845306,682.980286 316.246613,686.097290 
	C309.679230,687.862183 305.205475,686.195435 301.202515,680.724182 
	C290.369659,665.917786 280.325928,650.600098 270.649811,635.033264 
	C266.352600,628.119934 266.498108,626.066101 272.191315,620.111633 
	C280.135864,611.802368 288.264832,603.664368 296.483978,595.625916 
	C299.051086,593.115295 299.748932,590.845886 298.665131,587.268188 
	C296.692047,580.755066 295.219269,574.067017 293.957642,567.372864 
	C293.434082,564.594849 292.216461,563.462646 289.638153,562.814026 
	C277.374817,559.729065 265.179108,556.371216 252.894104,553.378418 
	C248.506805,552.309509 246.871506,550.282410 246.513596,545.550720 
	C245.039215,526.059875 245.594391,506.630005 246.737122,487.161316 
	C247.040329,481.995392 248.872147,479.413666 253.986938,478.247009 
	C266.472168,475.399292 278.814453,471.923126 291.304626,469.099670 
	C294.603210,468.354004 296.079285,466.879913 296.994171,463.861298 
	C298.682648,458.290253 300.527832,452.754364 302.609863,447.319550 
	C303.904755,443.939545 303.490997,441.619415 300.709412,438.998230 
	C292.830109,431.573181 285.223480,423.852722 277.649475,416.111603 
	C271.354553,409.677765 270.860321,406.713562 275.769318,399.450256 
	C285.190704,385.510437 294.988953,371.830750 305.576050,358.730743 
	C309.886108,353.397705 314.652130,351.147552 321.709930,353.548798 
	C332.101349,357.084229 342.857910,359.540466 353.274231,363.010895 
	C359.118073,364.957916 363.896118,364.501740 368.277893,360.111084 
	C370.231110,358.153870 372.124115,357.071106 374.334625,360.235352 
	C376.279907,363.019928 376.050873,364.604492 373.356110,366.807983 
	C336.098785,397.272858 312.522430,436.179779 303.054932,483.302368 
	C296.429047,516.281494 297.754883,549.175171 306.941437,581.641785 
	C307.344666,583.066711 307.549011,584.602356 308.733154,585.690552 
	C316.576447,583.809875 317.791077,581.995544 316.035889,574.663147 
	C305.300690,529.816040 308.349976,486.004425 327.122742,443.794952 
	C338.933075,417.240051 356.623901,394.755646 378.877899,376.049103 
	C382.749603,372.794617 383.082947,370.199768 380.379822,366.485809 
	C377.513916,362.548157 374.714630,359.243683 375.924683,353.171204 
	C376.830566,348.625183 373.636902,343.306824 372.451141,338.289215 
	C370.577057,330.358734 368.916992,322.377625 367.044464,314.446747 
	C366.103851,310.462982 367.317566,307.892792 370.967926,305.848358 
	C383.932709,298.587158 397.376831,292.384857 411.210358,287.004791 
	C412.744965,286.407990 414.470428,285.777313 416.044403,285.909882 
	C419.947388,286.238556 422.309875,284.471069 424.005737,281.220673 
	C424.808350,279.682343 426.207672,278.715668 427.867096,278.236908 
	C444.686798,273.384247 461.675598,269.337036 479.140015,267.589996 
	C479.924988,267.511505 480.810333,267.253265 481.394043,268.225647 
	C481.568573,269.900269 480.095612,270.336670 479.078003,271.067688 
	C464.735687,281.370758 450.623413,291.992035 436.999634,303.216309 
	C416.074341,320.456116 403.223969,342.575500 399.673676,369.509186 
	C398.265411,380.192810 398.552917,391.136017 400.941620,401.822144 
	C401.694580,405.190704 401.164337,407.822144 398.357910,410.261322 
	C368.968201,435.804718 352.466187,468.286652 348.165649,506.722717 
	C343.845337,545.335510 350.926239,581.729065 372.621307,614.532715 
	C389.306946,639.761963 411.747559,657.945862 440.424896,668.055786 
	C443.990173,669.312622 445.587677,670.841858 445.567749,675.083069 
	C445.340607,723.409729 445.378662,771.737671 445.375610,820.065308 
	C445.375488,821.852234 444.968018,823.706787 446.076569,825.977783 
	C450.844849,823.380798 454.016388,818.974548 458.231049,815.925537 
	C459.704437,814.859680 461.005310,813.521301 462.252899,812.184143 
	C465.173859,809.053345 467.307190,808.824036 470.025482,812.851196 
	C478.051025,824.741028 489.234741,831.756409 503.530151,834.269226 
	C530.480835,839.006836 558.122437,819.066162 561.689148,791.936707 
	C564.051208,773.970276 558.124573,759.157410 544.481262,747.464783 
	C541.658081,745.045227 540.576111,742.552246 540.589172,738.904053 
	C540.702271,707.406616 540.635010,675.908630 540.670959,644.410767 
	C540.681213,635.419922 540.130554,637.562927 548.003784,635.841187 
	C566.044678,631.895874 579.741089,622.451782 587.025391,604.959839 
	C588.829712,600.627014 589.769958,596.078857 589.787048,591.335266 
	C589.826050,580.503479 590.136108,569.670044 590.019348,558.840759 
	C589.839783,542.178040 578.142456,529.256226 561.555908,527.549805 
	C555.010559,526.876465 548.739929,529.339478 542.406860,530.651917 
	C529.207825,533.387024 516.074707,536.438416 502.892334,539.256226 
	C493.403656,541.284485 487.961243,547.892517 489.416748,555.874878 
	C490.839264,563.676331 499.256744,568.774475 508.365417,566.984680 
	C522.243103,564.257812 536.072388,561.283813 549.917603,558.392883 
	C555.947937,557.133667 556.469666,557.546753 556.517700,563.809998 
	C556.525330,564.807678 556.458496,565.844604 556.696167,566.795959 
	C560.238037,580.972595 551.573975,588.628174 541.336365,595.798096 
	C538.600952,592.544800 541.077454,588.467041 539.263916,585.296692 
	C532.005188,584.657288 531.046936,585.744324 533.090576,592.396057 
	C535.631958,600.668091 535.383423,608.932495 532.115173,616.851379 
	C530.334290,621.166504 529.908447,625.388367 529.896851,629.943420 
	C529.815918,661.768433 529.606384,693.593445 529.303040,725.417175 
	C529.267273,729.172791 530.270142,732.976135 529.112244,737.325562 
	C520.377014,735.100037 511.646149,734.945068 503.129242,735.619324 
	C501.494232,733.267883 502.071960,731.038391 502.062012,728.923157 
	C501.936615,702.259277 501.889252,675.594849 501.689240,648.931641 
	C501.670441,646.426147 502.818665,642.681030 498.333038,642.478088 
	C493.590576,642.263550 491.334717,644.553711 491.325775,649.402344 
	C491.274628,677.066956 491.172607,704.732361 491.351654,732.395752 
	C491.381805,737.056702 490.458130,740.269836 485.946777,742.400452 
	C482.342743,744.102539 479.564178,747.159973 476.709839,749.978210 
	C475.597778,751.076233 474.772888,752.771362 472.716644,752.567383 
	C471.262146,751.210205 471.806213,749.466492 471.805786,747.875122 
	C471.797638,716.877686 471.828918,685.880249 471.807312,654.882812 
	C471.802704,648.250610 471.718170,648.228149 464.980316,649.347900 
	C460.712555,650.057190 456.457550,650.843750 452.197449,651.599060 
	C438.322021,654.059143 424.228271,647.600098 416.752106,635.353088 
	C408.752533,622.248657 409.318512,607.728516 418.371887,596.134338 
	C419.771820,594.341492 421.206085,592.980652 418.943420,590.684570 
	C404.877014,576.410828 406.442230,553.707886 421.168030,541.341492 
	C421.514709,541.050354 421.668335,540.529419 422.152039,539.708069 
	C415.119934,533.522827 411.099823,525.668579 410.775146,516.221924 
	C410.156372,498.219604 422.229492,483.224335 440.655914,478.852112 
	C447.453735,477.239105 454.197296,475.338684 461.058319,474.071320 
	C465.649475,473.223175 466.253571,470.753784 465.337128,466.946869 
	C463.753418,460.367920 460.036102,455.135559 455.013245,450.794769 
	C448.587646,445.241760 441.889465,440.014709 436.337799,433.495209 
	C408.203674,400.456421 408.865265,354.685760 438.544983,323.068359 
	C450.164551,310.690186 462.808411,299.272888 475.008453,287.441345 
	C476.160400,286.324219 477.234650,284.857849 479.920532,285.616028 
	C479.920532,290.026245 479.952332,294.618164 479.914948,299.209595 
	C479.765747,317.534973 479.593292,335.860168 479.433350,354.185486 
	C479.379242,360.385376 479.640137,360.678375 485.856720,360.685120 
	C503.022217,360.703705 520.190430,360.520599 537.351501,360.797363 
	C542.335999,360.877777 543.981445,359.513367 543.913025,354.368500 
	C543.625122,332.706818 543.735779,311.039612 543.754211,289.374481 
	C543.755798,287.451477 543.160583,285.385315 544.484619,283.634674 
	C546.204651,282.917938 547.006836,284.247681 547.903748,285.107239 
	C559.692688,296.405609 571.497437,307.688171 583.213196,319.062195 
	C620.038025,354.812897 612.632751,409.454895 583.766724,437.097656 
	C579.196655,441.474091 574.538818,445.760925 569.855774,450.016907 
	C562.748108,456.476379 559.626526,464.682861 559.436218,474.066254 
	C559.263916,482.562134 559.518799,491.066864 559.333252,499.562195 
	C559.255127,503.137421 560.535034,504.373077 564.119873,504.882294 
	C583.261963,507.601288 598.037598,517.010498 607.679932,534.504517 
M479.093506,444.494446 
	C483.392426,450.899780 487.045776,457.606628 488.340332,465.328369 
	C488.956757,469.005035 490.962860,468.903259 493.761017,467.798462 
	C503.264923,464.045990 512.823059,463.779022 522.561157,467.154205 
	C527.989868,469.035828 532.225708,472.784668 537.380798,476.055115 
	C538.134094,470.534821 537.841736,465.391174 538.919495,460.381561 
	C540.010864,455.308716 543.450317,451.073364 544.700073,445.667603 
	C541.623718,445.873901 539.874878,447.267487 537.911926,448.095398 
	C528.364685,452.122040 518.844299,455.839691 508.045837,454.366180 
	C493.991028,452.448334 482.266541,439.286224 483.076935,425.783051 
	C483.914642,411.824860 493.771423,400.812225 507.749969,398.216766 
	C520.033875,395.935944 532.650208,403.196625 537.977661,415.931183 
	C538.974182,418.313110 540.113098,419.062012 542.418762,418.509338 
	C568.145569,412.342682 590.393311,384.431427 582.063660,355.392090 
	C578.977783,344.634308 571.806519,336.983917 563.128357,329.600616 
	C563.128357,345.489258 562.966492,360.469177 563.227356,375.441742 
	C563.305298,379.913727 561.870972,381.108582 557.524902,381.082520 
	C526.877319,380.898651 496.228149,380.883789 465.580261,381.007507 
	C461.280670,381.024841 459.673920,379.777222 459.748383,375.332916 
	C459.965973,362.344391 459.838409,349.349426 459.762848,336.357483 
	C459.753082,334.679352 460.308929,332.795013 458.892456,331.062103 
	C441.489838,346.214111 434.542725,365.031708 437.823547,387.499115 
	C440.448883,405.477722 450.506317,419.041901 464.378235,430.083099 
	C469.600006,434.239288 474.920166,438.251526 479.093506,444.494446 
M465.648285,523.870483 
	C481.715607,520.372375 497.819275,517.031006 513.835327,513.312012 
	C522.181519,511.373962 526.632446,504.056061 524.756409,496.447327 
	C522.878479,488.830902 515.816101,484.910675 507.159302,486.813751 
	C496.602570,489.134491 486.078674,491.604523 475.522858,493.929413 
	C464.319794,496.396912 453.045044,498.559631 441.899628,501.260071 
	C434.763153,502.989197 430.113220,510.887634 431.782776,517.347595 
	C433.781830,525.082458 440.066681,529.240479 447.776825,527.745422 
	C453.483887,526.638794 459.147980,525.310303 465.648285,523.870483 
M442.477997,603.770142 
	C434.402191,607.059875 430.643311,613.424377 432.632996,620.466309 
	C434.388611,626.679688 441.271179,632.642639 450.333496,630.104248 
	C457.362366,628.135437 464.663147,627.155151 471.810730,625.588135 
	C482.365173,623.274109 492.950562,621.059998 503.407776,618.358337 
	C510.264893,616.586792 514.666443,608.751831 513.044800,602.422974 
	C511.039368,594.596252 504.624237,590.522705 496.947571,592.154846 
	C479.045319,595.961243 461.138611,599.746582 442.477997,603.770142 
M466.865448,549.290344 
	C466.230621,547.445984 464.846741,547.357910 463.236572,547.703125 
	C455.452637,549.371704 447.604797,550.787903 439.898468,552.758362 
	C433.732422,554.335083 429.430481,561.455383 430.136536,567.871277 
	C430.834961,574.217712 436.145508,580.375610 442.008911,580.029175 
	C452.540314,579.406982 462.586334,575.931641 473.860840,573.947205 
	C468.302399,566.200867 466.061890,558.549744 466.865448,549.290344 
M520.821655,428.018799 
	C521.038147,419.921844 515.289612,414.631683 509.046539,417.182678 
	C504.809143,418.914124 501.968475,423.237244 502.709564,427.411713 
	C503.472534,431.709412 506.106110,434.622345 510.437073,435.532928 
	C514.722290,436.433960 518.311218,433.936066 520.821655,428.018799 
z"/>
<path fill="#007bff" opacity="1.000000" stroke="none" 
	d="
M641.931274,196.909027 
	C692.455811,217.787430 737.581909,246.177353 775.442200,285.401917 
	C811.849731,323.121429 838.887634,366.595978 855.354370,416.539246 
	C868.857910,457.495209 874.801880,499.541473 872.047668,542.478760 
	C868.729004,594.216370 856.010071,643.645813 831.213318,689.513306 
	C786.972717,771.346497 720.067322,826.551880 632.816162,857.699158 
	C631.273376,858.249939 629.747437,858.998108 627.926208,858.693726 
	C626.160706,857.140198 626.805298,855.012756 626.800354,853.121155 
	C626.755188,835.788757 627.052490,818.449707 626.646179,801.126831 
	C626.491089,794.513062 628.166687,791.008240 634.746338,788.087219 
	C679.631042,768.161133 716.649902,737.995056 747.312073,699.802856 
	C777.151428,662.635559 795.588867,620.460999 803.933533,573.580688 
	C807.542786,553.304016 809.515686,532.966736 808.474792,512.482910 
	C806.550537,474.615845 797.022339,438.624817 780.240173,404.552094 
	C746.927368,336.917114 694.084473,290.396942 625.379883,260.987640 
	C583.979248,243.265915 540.708740,235.010712 495.767639,237.542511 
	C453.394531,239.929657 413.088379,251.021759 374.862274,269.574982 
	C314.318970,298.959991 268.777832,343.736969 238.066269,403.483856 
	C215.822327,446.757690 206.819260,492.997040 210.536804,541.374939 
	C215.682358,608.336121 240.283203,667.128418 286.095581,716.825012 
	C314.849091,748.016418 349.140167,770.971680 387.886322,787.604065 
	C391.854095,789.307312 394.036255,791.032654 393.732178,795.804993 
	C393.431122,800.529785 394.310852,805.329529 393.231110,810.734985 
	C385.450714,808.847839 378.694672,805.675110 371.982666,802.577515 
	C328.303223,782.419495 291.259399,753.581177 260.354889,716.775696 
	C259.071289,715.247009 257.787781,713.685364 256.302032,712.366882 
	C254.033279,710.353760 251.477829,710.062561 249.086014,712.159302 
	C246.907272,714.069214 246.662277,716.448303 248.122940,718.921387 
	C248.882416,720.207214 249.742767,721.451782 250.691513,722.604797 
	C285.463745,764.862366 328.252533,796.345764 378.589752,817.656555 
	C381.499359,818.888306 384.458984,820.187622 387.526337,820.819153 
	C392.539825,821.851440 394.290771,824.598511 394.098511,829.610107 
	C393.798431,837.431030 394.058868,845.272766 394.031097,853.105530 
	C394.025299,854.732849 394.359924,856.464905 392.767914,858.365784 
	C385.877319,856.977661 379.084991,854.350403 372.382111,851.648071 
	C327.884979,833.708496 287.338196,809.466370 253.182220,775.417969 
	C222.133942,744.467468 196.417435,709.716553 178.115067,669.598938 
	C160.561646,631.122925 150.531525,590.720215 147.195618,548.795837 
	C144.798813,518.673767 147.075531,488.630646 152.903214,458.826416 
	C162.285645,410.842133 180.898438,366.910583 209.139450,327.080658 
	C239.480591,284.288757 277.715729,250.186707 323.008667,223.757706 
	C358.308746,203.159683 395.998810,188.913742 435.873291,180.564499 
	C472.575195,172.879562 509.621094,170.452866 547.093140,174.412903 
	C579.598267,177.848038 611.068115,185.132782 641.931274,196.909027 
M759.870300,318.627533 
	C748.021057,305.724213 735.596985,293.383881 721.901306,282.461304 
	C670.973022,241.844833 613.327209,217.172119 548.542786,208.867554 
	C514.399475,204.490799 480.784943,206.894958 447.244019,213.395493 
	C443.411652,214.138229 440.415680,215.904221 441.364227,220.419662 
	C442.226562,224.524796 445.349548,224.481628 448.827545,223.963608 
	C466.767700,221.291611 484.668243,218.077515 502.859009,217.743164 
	C539.298767,217.073380 574.901917,222.349411 609.518860,233.777100 
	C656.250977,249.204254 697.901917,273.301147 733.338074,307.636230 
	C747.577026,321.432739 761.439270,335.638214 772.625061,352.163696 
	C774.751587,355.305511 777.490112,357.058624 781.026855,354.691864 
	C784.515259,352.357361 784.116333,349.140594 782.019043,345.947876 
	C781.379150,344.973663 780.773926,343.968567 780.052246,343.057343 
	C773.639954,334.960388 767.415894,326.707611 759.870300,318.627533 
M776.116699,712.643738 
	C797.385559,684.455261 813.092896,653.432312 823.743835,619.780579 
	C830.898132,597.176575 835.421509,574.060547 837.743286,550.504089 
	C838.259888,545.263000 836.157654,542.300110 832.594543,542.499695 
	C827.887451,542.763367 826.562012,546.285706 826.415588,550.169800 
	C826.182678,556.348877 825.187744,562.413330 824.259827,568.493591 
	C819.123047,602.154541 809.537720,634.510010 793.514893,664.572815 
	C765.289062,717.531311 724.695740,758.966553 673.655518,790.321533 
	C671.683777,791.532654 669.793762,792.946716 668.095337,794.515015 
	C665.989685,796.459290 665.699097,798.854614 667.422668,801.251587 
	C669.063721,803.533875 671.307556,804.374878 673.994446,803.366089 
	C675.227234,802.903137 676.367126,802.161499 677.498474,801.464050 
	C715.573425,777.994507 749.316040,749.701599 776.116699,712.643738 
M239.676590,362.231964 
	C252.193481,343.024323 266.811279,325.477814 283.210205,309.553009 
	C316.948822,276.789795 356.583954,253.407318 400.703369,237.445435 
	C405.931519,235.553955 408.216949,232.688004 407.019470,229.439545 
	C405.812531,226.165466 402.028320,225.181488 397.037750,226.851868 
	C396.564392,227.010269 396.106201,227.213852 395.640778,227.395996 
	C374.529907,235.658249 353.935333,244.890564 334.338348,256.468689 
	C290.253143,282.514801 255.402588,317.818695 227.783142,360.614899 
	C227.692795,360.754852 227.596588,360.891449 227.513168,361.035431 
	C224.956238,365.449310 225.225479,368.725586 228.618820,370.578613 
	C232.977051,372.958557 234.915497,369.528809 236.948349,366.679749 
	C237.816269,365.463348 238.509079,364.122009 239.676590,362.231964 
M209.085312,656.478943 
	C212.960983,663.653076 216.740982,670.881409 220.759674,677.974548 
	C222.355453,680.791138 225.099380,681.733643 228.063309,680.166748 
	C231.089951,678.566833 231.432938,675.796570 230.213531,672.844604 
	C229.517685,671.160095 228.598938,669.553772 227.655701,667.987488 
	C222.054749,658.686890 217.638458,648.815552 213.533569,638.794495 
	C201.844452,610.258240 194.906219,580.566895 191.846588,549.917786 
	C191.334961,544.792725 188.939407,542.608276 185.158524,543.190247 
	C181.593002,543.739075 179.878616,546.964111 180.581253,551.779968 
	C181.493042,558.029175 182.269897,564.301208 183.326767,570.525696 
	C188.328873,599.985474 195.955444,628.672607 209.085312,656.478943 
M820.088867,457.600647 
	C821.851929,466.576141 823.645996,475.545715 825.363464,484.529907 
	C826.097961,488.371918 827.668091,491.468628 832.190369,490.629791 
	C836.431885,489.843079 836.802368,486.678711 836.182251,482.911346 
	C834.372070,471.914490 832.452148,460.936646 829.613342,450.159912 
	C822.846375,424.471680 814.075928,399.546600 800.593994,376.502136 
	C798.066772,372.182495 794.649353,370.942383 791.595154,373.027588 
	C787.759338,375.646423 788.724060,378.891205 790.660645,382.201782 
	C804.309387,405.534760 813.299133,430.692841 820.088867,457.600647 
M194.392105,428.746399 
	C190.078827,441.536774 187.210388,454.696350 184.497345,467.888336 
	C183.528320,472.600189 182.735199,477.364349 182.190948,482.142120 
	C181.785080,485.705200 183.235214,488.380310 187.185654,488.892242 
	C191.361511,489.433380 192.754074,486.613007 193.463074,483.306946 
	C193.913620,481.206116 193.907028,479.011841 194.230026,476.878357 
	C197.201172,457.253235 202.731827,438.270172 208.836533,419.445404 
	C210.012405,415.819366 209.406906,412.968506 205.963943,411.574982 
	C202.285919,410.086304 199.872009,412.328766 198.644394,415.648895 
	C197.146255,419.700592 195.935226,423.858490 194.392105,428.746399 
M832.980225,522.685852 
	C838.419739,522.583740 841.364136,519.926819 840.288391,515.967163 
	C839.527588,513.166626 837.758423,511.382782 834.683289,511.152954 
	C831.565796,510.919952 829.518860,512.426270 828.645752,515.239868 
	C827.589966,518.642456 829.211487,520.979858 832.980225,522.685852 
z"/>
<path fill="#007bff" opacity="1.000000" stroke="none" 
	d="
M475.966888,783.223022 
	C477.614166,761.701233 492.356659,751.733032 506.417969,749.509705 
	C526.575684,746.322449 546.305481,761.250488 548.159302,781.070251 
	C550.085205,801.661682 533.965454,819.627319 513.036377,820.215088 
	C492.071472,820.803833 476.216431,805.183105 475.966888,783.223022 
M526.400818,777.219849 
	C525.500549,776.032593 524.726318,774.718201 523.678711,773.679626 
	C518.524231,768.569763 510.723724,767.432617 504.362823,770.765564 
	C498.691437,773.737244 494.236450,781.443298 495.533569,786.793640 
	C497.190765,793.629456 501.535522,798.404297 508.408234,800.000488 
	C514.681824,801.457520 520.315735,799.241150 524.526917,794.461670 
	C528.828125,789.579834 530.062988,783.958435 526.400818,777.219849 
z"/>
</svg>